<svg width="1728" height="74" viewBox="0 0 1728 74" fill="none" xmlns="http://www.w3.org/2000/svg">
<path d="M84.7808 49.9441H-3.02734V54.9812H84.7808V49.9441Z" fill="#FCD116"/>
<path d="M84.7808 33.9775H-3.02734V39.0147H84.7808V33.9775Z" fill="#FCD116"/>
<path d="M84.7808 18H-3.02734V23.0475H84.7808V18Z" fill="#FCD116"/>
<path d="M1009.08 50.4299H921.27V55.4671H1009.08V50.4299Z" fill="#FCD116"/>
<path d="M1009.08 34.4634H921.27V39.5005H1009.08V34.4634Z" fill="#FCD116"/>
<path d="M1009.08 18.4858H921.27V23.5333H1009.08V18.4858Z" fill="#FCD116"/>
<path d="M546.929 49.9441H459.121V54.9812H546.929V49.9441Z" fill="#FCD116"/>
<path d="M546.929 33.9775H459.121V39.0147H546.929V33.9775Z" fill="#FCD116"/>
<path d="M546.929 18H459.121V23.0475H546.929V18Z" fill="#FCD116"/>
<path d="M1471.23 50.4299H1383.42V55.4671H1471.23V50.4299Z" fill="#FCD116"/>
<path d="M1471.23 34.4634H1383.42V39.5005H1471.23V34.4634Z" fill="#FCD116"/>
<path d="M1471.23 18.4858H1383.42V23.5333H1471.23V18.4858Z" fill="#FCD116"/>
<path d="M315.855 49.9441H228.047V54.9812H315.855V49.9441Z" fill="#FCD116"/>
<path d="M315.855 33.9775H228.047V39.0147H315.855V33.9775Z" fill="#FCD116"/>
<path d="M315.855 18H228.047V23.0475H315.855V18Z" fill="#FCD116"/>
<path d="M1240.15 50.4299H1152.34V55.4671H1240.15V50.4299Z" fill="#FCD116"/>
<path d="M1240.15 34.4634H1152.34V39.5005H1240.15V34.4634Z" fill="#FCD116"/>
<path d="M1240.15 18.4858H1152.34V23.5333H1240.15V18.4858Z" fill="#FCD116"/>
<path d="M778.003 49.9441H690.195V54.9812H778.003V49.9441Z" fill="#FCD116"/>
<path d="M778.003 33.9775H690.195V39.0147H778.003V33.9775Z" fill="#FCD116"/>
<path d="M778.003 18H690.195V23.0475H778.003V18Z" fill="#FCD116"/>
<path d="M1702.3 50.4299H1614.49V55.4671H1702.3V50.4299Z" fill="#FCD116"/>
<path d="M1702.3 34.4634H1614.49V39.5005H1702.3V34.4634Z" fill="#FCD116"/>
<path d="M1702.3 18.4858H1614.49V23.5333H1702.3V18.4858Z" fill="#FCD116"/>
<path d="M200.318 49.9441H112.51V54.9812H200.318V49.9441Z" fill="#FCD116"/>
<path d="M200.318 33.9775H112.51V39.0147H200.318V33.9775Z" fill="#FCD116"/>
<path d="M200.318 18H112.51V23.0475H200.318V18Z" fill="#FCD116"/>
<path d="M1124.61 50.4299H1036.8V55.4671H1124.61V50.4299Z" fill="#FCD116"/>
<path d="M1124.61 34.4634H1036.8V39.5005H1124.61V34.4634Z" fill="#FCD116"/>
<path d="M1124.61 18.4858H1036.8V23.5333H1124.61V18.4858Z" fill="#FCD116"/>
<path d="M662.466 49.9441H574.658V54.9812H662.466V49.9441Z" fill="#FCD116"/>
<path d="M662.466 33.9775H574.658V39.0147H662.466V33.9775Z" fill="#FCD116"/>
<path d="M662.466 18H574.658V23.0475H662.466V18Z" fill="#FCD116"/>
<path d="M1586.76 50.4299H1498.95V55.4671H1586.76V50.4299Z" fill="#FCD116"/>
<path d="M1586.76 34.4634H1498.95V39.5005H1586.76V34.4634Z" fill="#FCD116"/>
<path d="M1586.76 18.4858H1498.95V23.5333H1586.76V18.4858Z" fill="#FCD116"/>
<path d="M431.392 49.9441H343.584V54.9812H431.392V49.9441Z" fill="#FCD116"/>
<path d="M431.392 33.9775H343.584V39.0147H431.392V33.9775Z" fill="#FCD116"/>
<path d="M431.392 18H343.584V23.0475H431.392V18Z" fill="#FCD116"/>
<path d="M1355.69 50.4299H1267.88V55.4671H1355.69V50.4299Z" fill="#FCD116"/>
<path d="M1355.69 34.4634H1267.88V39.5005H1355.69V34.4634Z" fill="#FCD116"/>
<path d="M1355.69 18.4858H1267.88V23.5333H1355.69V18.4858Z" fill="#FCD116"/>
<path d="M893.541 49.9441H805.732V54.9812H893.541V49.9441Z" fill="#FCD116"/>
<path d="M893.541 33.9775H805.732V39.0147H893.541V33.9775Z" fill="#FCD116"/>
<path d="M893.541 18H805.732V23.0475H893.541V18Z" fill="#FCD116"/>
<path d="M24.7 36.9718C24.7 52.286 12.2853 64.7007 -3.02893 64.7007C-18.3432 64.7007 -30.7578 52.286 -30.7578 36.9718C-30.7578 21.6576 -18.3432 9.24292 -3.02893 9.24292C12.2853 9.24292 24.7 21.6576 24.7 36.9718Z" fill="#17B636"/>
<path fill-rule="evenodd" clip-rule="evenodd" d="M33.9437 36.9718C33.9437 57.3908 17.3908 73.9437 -3.02816 73.9437C-23.4471 73.9437 -40 57.3908 -40 36.9718C-40 16.5529 -23.4471 0 -3.02816 0C17.3908 0 33.9437 16.5529 33.9437 36.9718ZM-3.02816 64.7007C12.2861 64.7007 24.7007 52.2861 24.7007 36.9718C24.7007 21.6576 12.2861 9.24296 -3.02816 9.24296C-18.3424 9.24296 -30.757 21.6576 -30.757 36.9718C-30.757 52.2861 -18.3424 64.7007 -3.02816 64.7007Z" fill="white"/>
<path d="M948.997 36.9718C948.997 52.286 936.582 64.7007 921.268 64.7007C905.954 64.7007 893.539 52.286 893.539 36.9718C893.539 21.6576 905.954 9.24292 921.268 9.24292C936.582 9.24292 948.997 21.6576 948.997 36.9718Z" fill="#17B636"/>
<path fill-rule="evenodd" clip-rule="evenodd" d="M958.241 36.9718C958.241 57.3908 941.688 73.9437 921.269 73.9437C900.85 73.9437 884.297 57.3908 884.297 36.9718C884.297 16.5529 900.85 0 921.269 0C941.688 0 958.241 16.5529 958.241 36.9718ZM921.269 64.7007C936.583 64.7007 948.998 52.2861 948.998 36.9718C948.998 21.6576 936.583 9.24296 921.269 9.24296C905.954 9.24296 893.54 21.6576 893.54 36.9718C893.54 52.2861 905.954 64.7007 921.269 64.7007Z" fill="white"/>
<path d="M486.848 36.9718C486.848 52.286 474.434 64.7007 459.12 64.7007C443.805 64.7007 431.391 52.286 431.391 36.9718C431.391 21.6576 443.805 9.24292 459.12 9.24292C474.434 9.24292 486.848 21.6576 486.848 36.9718Z" fill="#00A3DD"/>
<path fill-rule="evenodd" clip-rule="evenodd" d="M496.092 36.9718C496.092 57.3908 479.539 73.9437 459.12 73.9437C438.701 73.9437 422.148 57.3908 422.148 36.9718C422.148 16.5529 438.701 0 459.12 0C479.539 0 496.092 16.5529 496.092 36.9718ZM459.12 64.7007C474.435 64.7007 486.849 52.2861 486.849 36.9718C486.849 21.6576 474.435 9.24296 459.12 9.24296C443.806 9.24296 431.391 21.6576 431.391 36.9718C431.391 52.2861 443.806 64.7007 459.12 64.7007Z" fill="white"/>
<path d="M1411.15 36.9718C1411.15 52.286 1398.73 64.7007 1383.42 64.7007C1368.1 64.7007 1355.69 52.286 1355.69 36.9718C1355.69 21.6576 1368.1 9.24292 1383.42 9.24292C1398.73 9.24292 1411.15 21.6576 1411.15 36.9718Z" fill="#00A3DD"/>
<path fill-rule="evenodd" clip-rule="evenodd" d="M1420.39 36.9718C1420.39 57.3908 1403.84 73.9437 1383.42 73.9437C1363 73.9437 1346.45 57.3908 1346.45 36.9718C1346.45 16.5529 1363 0 1383.42 0C1403.84 0 1420.39 16.5529 1420.39 36.9718ZM1383.42 64.7007C1398.73 64.7007 1411.15 52.2861 1411.15 36.9718C1411.15 21.6576 1398.73 9.24296 1383.42 9.24296C1368.1 9.24296 1355.69 21.6576 1355.69 36.9718C1355.69 52.2861 1368.1 64.7007 1383.42 64.7007Z" fill="white"/>
<path d="M255.774 36.9718C255.774 52.286 243.36 64.7007 228.045 64.7007C212.731 64.7007 200.316 52.286 200.316 36.9718C200.316 21.6576 212.731 9.24292 228.045 9.24292C243.36 9.24292 255.774 21.6576 255.774 36.9718Z" fill="black"/>
<path fill-rule="evenodd" clip-rule="evenodd" d="M265.018 36.9718C265.018 57.3908 248.465 73.9437 228.046 73.9437C207.627 73.9437 191.074 57.3908 191.074 36.9718C191.074 16.5529 207.627 0 228.046 0C248.465 0 265.018 16.5529 265.018 36.9718ZM228.046 64.7007C243.36 64.7007 255.775 52.2861 255.775 36.9718C255.775 21.6576 243.36 9.24296 228.046 9.24296C212.732 9.24296 200.317 21.6576 200.317 36.9718C200.317 52.2861 212.732 64.7007 228.046 64.7007Z" fill="white"/>
<path d="M1180.07 36.9718C1180.07 52.286 1167.66 64.7007 1152.34 64.7007C1137.03 64.7007 1124.61 52.286 1124.61 36.9718C1124.61 21.6576 1137.03 9.24292 1152.34 9.24292C1167.66 9.24292 1180.07 21.6576 1180.07 36.9718Z" fill="black"/>
<path fill-rule="evenodd" clip-rule="evenodd" d="M1189.31 36.9718C1189.31 57.3908 1172.76 73.9437 1152.34 73.9437C1131.92 73.9437 1115.37 57.3908 1115.37 36.9718C1115.37 16.5529 1131.92 0 1152.34 0C1172.76 0 1189.31 16.5529 1189.31 36.9718ZM1152.34 64.7007C1167.66 64.7007 1180.07 52.2861 1180.07 36.9718C1180.07 21.6576 1167.66 9.24296 1152.34 9.24296C1137.03 9.24296 1124.61 21.6576 1124.61 36.9718C1124.61 52.2861 1137.03 64.7007 1152.34 64.7007Z" fill="white"/>
<path d="M717.923 36.9718C717.923 52.286 705.508 64.7007 690.194 64.7007C674.879 64.7007 662.465 52.286 662.465 36.9718C662.465 21.6576 674.879 9.24292 690.194 9.24292C705.508 9.24292 717.923 21.6576 717.923 36.9718Z" fill="black"/>
<path fill-rule="evenodd" clip-rule="evenodd" d="M727.166 36.9718C727.166 57.3908 710.613 73.9437 690.194 73.9437C669.776 73.9437 653.223 57.3908 653.223 36.9718C653.223 16.5529 669.776 0 690.194 0C710.613 0 727.166 16.5529 727.166 36.9718ZM690.194 64.7007C705.509 64.7007 717.923 52.2861 717.923 36.9718C717.923 21.6576 705.509 9.24296 690.194 9.24296C674.88 9.24296 662.466 21.6576 662.466 36.9718C662.466 52.2861 674.88 64.7007 690.194 64.7007Z" fill="white"/>
<path d="M1642.22 36.9718C1642.22 52.286 1629.8 64.7007 1614.49 64.7007C1599.18 64.7007 1586.76 52.286 1586.76 36.9718C1586.76 21.6576 1599.18 9.24292 1614.49 9.24292C1629.8 9.24292 1642.22 21.6576 1642.22 36.9718Z" fill="black"/>
<path fill-rule="evenodd" clip-rule="evenodd" d="M1651.46 36.9718C1651.46 57.3908 1634.91 73.9437 1614.49 73.9437C1594.07 73.9437 1577.52 57.3908 1577.52 36.9718C1577.52 16.5529 1594.07 0 1614.49 0C1634.91 0 1651.46 16.5529 1651.46 36.9718ZM1614.49 64.7007C1629.81 64.7007 1642.22 52.2861 1642.22 36.9718C1642.22 21.6576 1629.81 9.24296 1614.49 9.24296C1599.18 9.24296 1586.76 21.6576 1586.76 36.9718C1586.76 52.2861 1599.18 64.7007 1614.49 64.7007Z" fill="white"/>
<path d="M140.237 36.9718C140.237 52.286 127.822 64.7007 112.508 64.7007C97.1939 64.7007 84.7793 52.286 84.7793 36.9718C84.7793 21.6576 97.1939 9.24292 112.508 9.24292C127.822 9.24292 140.237 21.6576 140.237 36.9718Z" fill="#00A3DD"/>
<path fill-rule="evenodd" clip-rule="evenodd" d="M149.481 36.9718C149.481 57.3908 132.928 73.9437 112.509 73.9437C92.09 73.9437 75.5371 57.3908 75.5371 36.9718C75.5371 16.5529 92.09 0 112.509 0C132.928 0 149.481 16.5529 149.481 36.9718ZM112.509 64.7007C127.823 64.7007 140.238 52.2861 140.238 36.9718C140.238 21.6576 127.823 9.24296 112.509 9.24296C97.1947 9.24296 84.7801 21.6576 84.7801 36.9718C84.7801 52.2861 97.1947 64.7007 112.509 64.7007Z" fill="white"/>
<path d="M1064.53 36.9718C1064.53 52.286 1052.12 64.7007 1036.81 64.7007C1021.49 64.7007 1009.08 52.286 1009.08 36.9718C1009.08 21.6576 1021.49 9.24292 1036.81 9.24292C1052.12 9.24292 1064.53 21.6576 1064.53 36.9718Z" fill="#00A3DD"/>
<path fill-rule="evenodd" clip-rule="evenodd" d="M1073.78 36.9718C1073.78 57.3908 1057.22 73.9437 1036.81 73.9437C1016.39 73.9437 999.834 57.3908 999.834 36.9718C999.834 16.5529 1016.39 0 1036.81 0C1057.22 0 1073.78 16.5529 1073.78 36.9718ZM1036.81 64.7007C1052.12 64.7007 1064.53 52.2861 1064.53 36.9718C1064.53 21.6576 1052.12 9.24296 1036.81 9.24296C1021.49 9.24296 1009.08 21.6576 1009.08 36.9718C1009.08 52.2861 1021.49 64.7007 1036.81 64.7007Z" fill="white"/>
<path d="M602.385 36.9718C602.385 52.286 589.971 64.7007 574.657 64.7007C559.342 64.7007 546.928 52.286 546.928 36.9718C546.928 21.6576 559.342 9.24292 574.657 9.24292C589.971 9.24292 602.385 21.6576 602.385 36.9718Z" fill="#17B636"/>
<path fill-rule="evenodd" clip-rule="evenodd" d="M611.629 36.9718C611.629 57.3908 595.076 73.9437 574.657 73.9437C554.238 73.9437 537.686 57.3908 537.686 36.9718C537.686 16.5529 554.238 0 574.657 0C595.076 0 611.629 16.5529 611.629 36.9718ZM574.657 64.7007C589.972 64.7007 602.386 52.2861 602.386 36.9718C602.386 21.6576 589.972 9.24296 574.657 9.24296C559.343 9.24296 546.929 21.6576 546.929 36.9718C546.929 52.2861 559.343 64.7007 574.657 64.7007Z" fill="white"/>
<path d="M1526.68 36.9718C1526.68 52.286 1514.27 64.7007 1498.95 64.7007C1483.64 64.7007 1471.22 52.286 1471.22 36.9718C1471.22 21.6576 1483.64 9.24292 1498.95 9.24292C1514.27 9.24292 1526.68 21.6576 1526.68 36.9718Z" fill="#17B636"/>
<path fill-rule="evenodd" clip-rule="evenodd" d="M1535.93 36.9718C1535.93 57.3908 1519.37 73.9437 1498.95 73.9437C1478.54 73.9437 1461.98 57.3908 1461.98 36.9718C1461.98 16.5529 1478.54 0 1498.95 0C1519.37 0 1535.93 16.5529 1535.93 36.9718ZM1498.95 64.7007C1514.27 64.7007 1526.68 52.2861 1526.68 36.9718C1526.68 21.6576 1514.27 9.24296 1498.95 9.24296C1483.64 9.24296 1471.23 21.6576 1471.23 36.9718C1471.23 52.2861 1483.64 64.7007 1498.95 64.7007Z" fill="white"/>
<path d="M371.311 36.9718C371.311 52.286 358.897 64.7007 343.582 64.7007C328.268 64.7007 315.854 52.286 315.854 36.9718C315.854 21.6576 328.268 9.24292 343.582 9.24292C358.897 9.24292 371.311 21.6576 371.311 36.9718Z" fill="#17B636"/>
<path fill-rule="evenodd" clip-rule="evenodd" d="M380.555 36.9718C380.555 57.3908 364.002 73.9437 343.583 73.9437C323.164 73.9437 306.611 57.3908 306.611 36.9718C306.611 16.5529 323.164 0 343.583 0C364.002 0 380.555 16.5529 380.555 36.9718ZM343.583 64.7007C358.897 64.7007 371.312 52.2861 371.312 36.9718C371.312 21.6576 358.897 9.24296 343.583 9.24296C328.269 9.24296 315.854 21.6576 315.854 36.9718C315.854 52.2861 328.269 64.7007 343.583 64.7007Z" fill="white"/>
<path d="M1295.61 36.9718C1295.61 52.286 1283.19 64.7007 1267.88 64.7007C1252.57 64.7007 1240.15 52.286 1240.15 36.9718C1240.15 21.6576 1252.57 9.24292 1267.88 9.24292C1283.19 9.24292 1295.61 21.6576 1295.61 36.9718Z" fill="#17B636"/>
<path fill-rule="evenodd" clip-rule="evenodd" d="M1304.85 36.9718C1304.85 57.3908 1288.3 73.9437 1267.88 73.9437C1247.46 73.9437 1230.91 57.3908 1230.91 36.9718C1230.91 16.5529 1247.46 0 1267.88 0C1288.3 0 1304.85 16.5529 1304.85 36.9718ZM1267.88 64.7007C1283.19 64.7007 1295.61 52.2861 1295.61 36.9718C1295.61 21.6576 1283.19 9.24296 1267.88 9.24296C1252.57 9.24296 1240.15 21.6576 1240.15 36.9718C1240.15 52.2861 1252.57 64.7007 1267.88 64.7007Z" fill="white"/>
<path d="M833.46 36.9718C833.46 52.286 821.045 64.7007 805.731 64.7007C790.417 64.7007 778.002 52.286 778.002 36.9718C778.002 21.6576 790.417 9.24292 805.731 9.24292C821.045 9.24292 833.46 21.6576 833.46 36.9718Z" fill="#00A3DD"/>
<path fill-rule="evenodd" clip-rule="evenodd" d="M842.703 36.9718C842.703 57.3908 826.151 73.9437 805.732 73.9437C785.313 73.9437 768.76 57.3908 768.76 36.9718C768.76 16.5529 785.313 0 805.732 0C826.151 0 842.703 16.5529 842.703 36.9718ZM805.732 64.7007C821.046 64.7007 833.46 52.2861 833.46 36.9718C833.46 21.6576 821.046 9.24296 805.732 9.24296C790.417 9.24296 778.003 21.6576 778.003 36.9718C778.003 52.2861 790.417 64.7007 805.732 64.7007Z" fill="white"/>
<path d="M1757.76 36.9718C1757.76 52.286 1745.34 64.7007 1730.03 64.7007C1714.71 64.7007 1702.3 52.286 1702.3 36.9718C1702.3 21.6576 1714.71 9.24292 1730.03 9.24292C1745.34 9.24292 1757.76 21.6576 1757.76 36.9718Z" fill="#00A3DD"/>
<path fill-rule="evenodd" clip-rule="evenodd" d="M1767 36.9718C1767 57.3908 1750.45 73.9437 1730.03 73.9437C1709.61 73.9437 1693.06 57.3908 1693.06 36.9718C1693.06 16.5529 1709.61 0 1730.03 0C1750.45 0 1767 16.5529 1767 36.9718ZM1730.03 64.7007C1745.34 64.7007 1757.76 52.2861 1757.76 36.9718C1757.76 21.6576 1745.34 9.24296 1730.03 9.24296C1714.71 9.24296 1702.3 21.6576 1702.3 36.9718C1702.3 52.2861 1714.71 64.7007 1730.03 64.7007Z" fill="white"/>
</svg>
