<svg width="202" height="72" viewBox="0 0 202 72" fill="none" xmlns="http://www.w3.org/2000/svg">
<g clip-path="url(#clip0_120_244)">
<path d="M65.233 49.5222H58.094V52.2509H64.4525C65.3493 52.2509 65.959 52.4118 66.2936 52.7314C66.6234 53.0509 66.7871 53.6578 66.7871 54.5544V55.6532C66.7871 56.5544 66.6281 57.1636 66.3031 57.4854C65.978 57.8049 65.3612 57.9659 64.4525 57.9659H58.559C57.6456 57.9659 57.0216 57.8026 56.6942 57.4785C56.3596 57.1567 56.1959 56.5475 56.1959 55.6532V55.3865L57.7642 55.0325V56.6072H65.271V53.6647H58.9315C58.0204 53.6647 57.3965 53.5038 57.0738 53.1796C56.7487 52.8578 56.585 52.2486 56.585 51.3544V50.5015C56.585 49.6095 56.7487 49.0003 57.0738 48.6762C57.3965 48.3521 58.0204 48.1911 58.9315 48.1911H64.3077C65.2069 48.1911 65.8214 48.3498 66.1655 48.6693C66.5047 48.9842 66.6756 49.5406 66.6756 50.336V50.5406L65.233 50.936V49.5222Z" fill="#F15522"/>
<path d="M68.4164 57.9659V48.1911H78.1344V49.5038H70.1081V52.2233H75.0121V53.5176H70.1081V56.6256H78.208V57.9659H68.4164Z" fill="#F15522"/>
<path d="M89.0252 49.5222H82.0261V56.6072H89.0252V54.1544L90.7097 54.4969V55.6532C90.7097 56.5544 90.5531 57.1636 90.2281 57.4854C89.9006 57.8049 89.2814 57.9659 88.3632 57.9659H82.7141C81.8007 57.9659 81.172 57.8026 80.8446 57.4785C80.51 57.1567 80.3463 56.5475 80.3463 55.6532V50.5015C80.3463 49.6095 80.51 49.0003 80.8446 48.6762C81.172 48.3521 81.8007 48.1911 82.7141 48.1911H88.3632C89.2814 48.1911 89.9006 48.3521 90.2281 48.6716C90.5531 48.9934 90.7097 49.6026 90.7097 50.5015V51.4279L89.0252 51.7337V49.5222Z" fill="#F15522"/>
<path d="M95.0957 48.1911V56.6072H102.444V48.1911H104.104V55.6532C104.104 56.5544 103.938 57.1636 103.616 57.4854C103.288 57.8072 102.664 57.9659 101.756 57.9659H95.7743C94.8561 57.9659 94.2321 57.8026 93.9023 57.4762C93.5702 57.1475 93.4065 56.5406 93.4065 55.6532V48.1911H95.0957Z" fill="#F15522"/>
<path d="M113.36 49.4601H107.576V52.89H113.36C113.78 52.89 114.067 52.8164 114.217 52.6693C114.371 52.5199 114.444 52.2624 114.444 51.8923V50.467C114.444 50.0969 114.371 49.8394 114.212 49.6877C114.06 49.536 113.773 49.4601 113.36 49.4601ZM105.884 57.9682V48.1935H114.017C114.777 48.1935 115.32 48.3429 115.652 48.6417C115.987 48.9406 116.15 49.4233 116.15 50.09V52.2716C116.15 52.9314 115.987 53.4095 115.652 53.7084C115.32 54.0072 114.777 54.1567 114.017 54.1567H112.537L117.147 57.9682H114.646L110.546 54.1567H107.576V57.9682H105.884Z" fill="#F15522"/>
<path d="M120.738 48.1912H119.054V57.966H120.738V48.1912Z" fill="#F15522"/>
<path d="M128.148 49.5222V57.9659H126.468V49.5222H121.861V48.1911H132.779V49.5222H128.148Z" fill="#F15522"/>
<path d="M138.742 57.9659V53.7015L133.629 48.1911H135.717L139.66 52.5475L143.437 48.1911H145.492L140.422 53.6647V57.9659H138.742Z" fill="#F15522"/>
<path d="M201.664 56.0441H150.63V57.1545H201.664V56.0441Z" fill="#F15522"/>
<path d="M201.664 52.5246H150.63V53.6349H201.664V52.5246Z" fill="#F15522"/>
<path d="M201.664 49.0027H150.63V50.1153H201.664V49.0027Z" fill="#F15522"/>
<path d="M51.056 56.0441H0.0198212V57.1545H51.056V56.0441Z" fill="#F15522"/>
<path d="M51.056 52.5246H0.0198212V53.6349H51.056V52.5246Z" fill="#F15522"/>
<path d="M51.056 49.0027H0.0198212V50.1153H51.056V49.0027Z" fill="#F15522"/>
<path d="M145.235 16.4417V9.69921C145.235 9.49231 145.408 9.3222 145.624 9.3222H177.796C178.012 9.3222 178.185 9.49231 178.185 9.69921V16.4417H145.235ZM181.813 0.211845H141.609C136.985 0.211845 133.595 3.61645 133.595 7.97507V40.4693H145.235V25.2877H178.185V40.4693H189.825V7.97507C189.825 3.61645 186.432 0.211845 181.813 0.211845Z" fill="#F15522"/>
<path d="M23.4965 9.60261H67.975V0.48996H18.7063C14.9244 0.48996 11.8591 3.46238 11.8591 7.12675V21.3842C11.8591 23.8785 13.9469 25.9497 16.5212 25.9497H56.3352C56.5535 25.9497 56.7267 26.1176 56.7267 26.3268V31.3589C56.7267 31.5681 56.5535 31.736 56.3352 31.736H11.8591V40.4716H62.2951C66.0769 40.4716 67.975 39.0072 67.975 35.3429V21.0854C67.975 18.5888 65.8871 16.5658 63.3129 16.5658H23.4965C23.283 16.5658 23.1074 16.3497 23.1074 16.1428V9.97962C23.1074 9.77043 23.283 9.60261 23.4965 9.60261Z" fill="#F15522"/>
<path d="M100.783 16.2923V25.9176H117.502V30.9682C117.502 31.1751 117.329 31.4647 117.113 31.4647H84.3645C84.1486 31.4647 83.9754 31.2946 83.9754 31.0877V9.48999C83.9754 9.28309 84.1486 9.11527 84.3645 9.11527H128.841V0.00262451H79.5696C75.7877 0.00262451 72.7247 2.97504 72.7247 6.63711V34.8233C72.7247 37.6003 75.3559 40.4716 78.5517 40.4716H104.664V40.4532H122.292C126.074 40.4532 129.137 37.4831 129.137 33.8187V16.2923H100.783Z" fill="#F15522"/>
<path d="M82.1223 67.1177C82.1223 69.6809 79.9799 71.7591 77.3344 71.7591C74.6843 71.7591 72.5395 69.6809 72.5395 67.1177C72.5395 64.5545 74.6843 62.474 77.3344 62.474C79.9799 62.474 82.1223 64.5545 82.1223 67.1177Z" fill="#F15522"/>
<path d="M97.7988 67.1177C97.7988 69.6809 95.6516 71.7591 93.0086 71.7591C90.3608 71.7591 88.216 69.6809 88.216 67.1177C88.216 64.5545 90.3608 62.474 93.0086 62.474C95.6516 62.474 97.7988 64.5545 97.7988 67.1177Z" fill="#F15522"/>
<path d="M113.466 67.1177C113.466 69.6809 111.321 71.7591 108.676 71.7591C106.031 71.7591 103.883 69.6809 103.883 67.1177C103.883 64.5545 106.031 62.474 108.676 62.474C111.321 62.474 113.466 64.5545 113.466 67.1177Z" fill="#F15522"/>
<path d="M129.143 67.1177C129.143 69.6809 126.996 71.7591 124.35 71.7591C121.705 71.7591 119.558 69.6809 119.558 67.1177C119.558 64.5545 121.705 62.474 124.35 62.474C126.996 62.474 129.143 64.5545 129.143 67.1177Z" fill="#F15522"/>
</g>
<defs>
<clipPath id="clip0_120_244">
<rect width="202" height="72" fill="white"/>
</clipPath>
</defs>
</svg>
