<svg width="307" height="108" viewBox="0 0 307 108" fill="none" xmlns="http://www.w3.org/2000/svg">
<g clip-path="url(#clip0_120_708)">
<path d="M99.1413 74.2837H88.2914V78.3768H97.955C99.318 78.3768 100.245 78.6181 100.753 79.0975C101.254 79.5768 101.503 80.4871 101.503 81.8319V83.4802C101.503 84.8319 101.262 85.7457 100.768 86.2285C100.274 86.7078 99.336 86.9492 97.955 86.9492H88.9981C87.6099 86.9492 86.6615 86.7044 86.1639 86.2182C85.6555 85.7354 85.4067 84.8216 85.4067 83.4802V83.0802L87.7902 82.5492V84.9113H99.199V80.4975H89.5642C88.1796 80.4975 87.2313 80.2561 86.7409 79.7699C86.2469 79.2871 85.9981 78.3733 85.9981 77.0319V75.7526C85.9981 74.4147 86.2469 73.5009 86.7409 73.0147C87.2313 72.5285 88.1796 72.2871 89.5642 72.2871H97.735C99.1016 72.2871 100.036 72.525 100.558 73.0044C101.074 73.4768 101.334 74.3112 101.334 75.5044V75.8113L99.1413 76.4044V74.2837Z" fill="white"/>
<path d="M103.979 86.9492V72.2871H118.749V74.2561H106.55V78.3354H114.004V80.2768H106.55V84.9388H118.861V86.9492H103.979Z" fill="white"/>
<path d="M135.301 74.2837H124.663V84.9113H135.301V81.2319L137.861 81.7457V83.4802C137.861 84.8319 137.623 85.7457 137.129 86.2285C136.631 86.7078 135.69 86.9492 134.295 86.9492H125.709C124.321 86.9492 123.365 86.7044 122.868 86.2182C122.359 85.7354 122.111 84.8216 122.111 83.4802V75.7526C122.111 74.4147 122.359 73.5009 122.868 73.0147C123.365 72.5285 124.321 72.2871 125.709 72.2871H134.295C135.69 72.2871 136.631 72.5285 137.129 73.0078C137.623 73.4906 137.861 74.4044 137.861 75.7526V77.1423L135.301 77.6009V74.2837Z" fill="white"/>
<path d="M144.527 72.2871V84.9113H155.694V72.2871H158.218V83.4802C158.218 84.8319 157.966 85.7457 157.475 86.2285C156.978 86.7113 156.029 86.9492 154.648 86.9492H145.558C144.162 86.9492 143.214 86.7044 142.713 86.2147C142.208 85.7216 141.959 84.8113 141.959 83.4802V72.2871H144.527Z" fill="white"/>
<path d="M172.285 74.19H163.494V79.3349H172.285C172.923 79.3349 173.36 79.2245 173.587 79.0038C173.821 78.7797 173.933 78.3935 173.933 77.8383V75.7004C173.933 75.1452 173.821 74.759 173.58 74.5314C173.349 74.3038 172.912 74.19 172.285 74.19ZM160.923 86.9521V72.29H173.284C174.438 72.29 175.263 72.5142 175.768 72.9625C176.277 73.4107 176.526 74.1349 176.526 75.1349V78.4073C176.526 79.3969 176.277 80.1142 175.768 80.5625C175.263 81.0107 174.438 81.2349 173.284 81.2349H171.034L178.04 86.9521H174.239L168.009 81.2349H163.494V86.9521H160.923Z" fill="white"/>
<path d="M183.498 72.2871H180.938V86.9492H183.498V72.2871Z" fill="white"/>
<path d="M194.759 74.2837V86.9492H192.207V74.2837H185.204V72.2871H201.798V74.2837H194.759Z" fill="white"/>
<path d="M210.86 86.9492V80.5526L203.089 72.2871H206.263L212.255 78.8216L217.996 72.2871H221.119L213.413 80.4975V86.9492H210.86Z" fill="white"/>
<path d="M306.49 84.0664H228.928V85.7319H306.49V84.0664Z" fill="white"/>
<path d="M306.49 78.7871H228.928V80.4526H306.49V78.7871Z" fill="white"/>
<path d="M306.49 73.5039H228.928V75.1729H306.49V73.5039Z" fill="white"/>
<path d="M77.5951 84.0664H0.0301285V85.7319H77.5951V84.0664Z" fill="white"/>
<path d="M77.5951 78.7871H0.0301285V80.4526H77.5951V78.7871Z" fill="white"/>
<path d="M77.5951 73.5039H0.0301285V75.1729H77.5951V73.5039Z" fill="white"/>
<path d="M220.728 24.6622V14.5484C220.728 14.2381 220.991 13.9829 221.319 13.9829H270.214C270.543 13.9829 270.806 14.2381 270.806 14.5484V24.6622H220.728ZM276.319 0.317383H215.218C208.191 0.317383 203.038 5.42428 203.038 11.9622V60.7036H220.728V37.9312H270.806V60.7036H288.496V11.9622C288.496 5.42428 283.34 0.317383 276.319 0.317383Z" fill="white"/>
<path d="M35.71 14.4043H103.309V0.735352H28.4299C22.6822 0.735352 18.0235 5.19398 18.0235 10.6905V32.0768C18.0235 35.8181 21.1966 38.925 25.1089 38.925H85.6183C85.9501 38.925 86.2133 39.1768 86.2133 39.4905V47.0388C86.2133 47.3526 85.9501 47.6043 85.6183 47.6043H18.0235V60.7078H94.6762C100.424 60.7078 103.309 58.5112 103.309 53.0147V31.6285C103.309 27.8836 100.135 24.8492 96.2231 24.8492H35.71C35.3855 24.8492 35.1187 24.525 35.1187 24.2147V14.9698C35.1187 14.6561 35.3855 14.4043 35.71 14.4043Z" fill="white"/>
<path d="M153.17 24.4384V38.8763H178.58V46.4522C178.58 46.7626 178.317 47.197 177.989 47.197H128.217C127.889 47.197 127.626 46.9419 127.626 46.6315V14.2349C127.626 13.9246 127.889 13.6729 128.217 13.6729H195.812V0.00390625H120.93C115.182 0.00390625 110.527 4.46253 110.527 9.95564V52.235C110.527 56.4005 114.526 60.7074 119.383 60.7074H159.069V60.6798H185.86C191.608 60.6798 196.263 56.2246 196.263 50.7281V24.4384H153.17Z" fill="white"/>
<path d="M124.81 100.677C124.81 104.521 121.554 107.639 117.533 107.639C113.505 107.639 110.246 104.521 110.246 100.677C110.246 96.8318 113.505 93.7111 117.533 93.7111C121.554 93.7111 124.81 96.8318 124.81 100.677Z" fill="white"/>
<path d="M148.635 100.677C148.635 104.521 145.372 107.639 141.355 107.639C137.331 107.639 134.071 104.521 134.071 100.677C134.071 96.8318 137.331 93.7111 141.355 93.7111C145.372 93.7111 148.635 96.8318 148.635 100.677Z" fill="white"/>
<path d="M172.446 100.677C172.446 104.521 169.186 107.639 165.166 107.639C161.146 107.639 157.882 104.521 157.882 100.677C157.882 96.8318 161.146 93.7111 165.166 93.7111C169.186 93.7111 172.446 96.8318 172.446 100.677Z" fill="white"/>
<path d="M196.271 100.677C196.271 104.521 193.008 107.639 188.988 107.639C184.967 107.639 181.704 104.521 181.704 100.677C181.704 96.8318 184.967 93.7111 188.988 93.7111C193.008 93.7111 196.271 96.8318 196.271 100.677Z" fill="white"/>
</g>
<defs>
<clipPath id="clip0_120_708">
<rect width="307" height="108" fill="white"/>
</clipPath>
</defs>
</svg>
