<svg width="140" height="88" viewBox="0 0 140 88" fill="none" xmlns="http://www.w3.org/2000/svg">
<path d="M117.155 87.6865L22.9042 87.7178L22.8728 37.378L69.2721 52.4667C69.498 52.564 69.7551 52.5953 70.0157 52.5953C70.2729 52.5953 70.5335 52.564 70.7593 52.4667L117.127 37.3467L117.155 87.6865Z" fill="white"/>
<path d="M138.808 66.0193L138.787 23.832C138.787 23.6096 138.711 23.415 138.606 23.2378L140 22.7825L69.9879 0L0 22.8521L70.0121 45.6346L136.365 23.9676L136.386 66.0193C136.386 66.5962 136.789 67.0792 137.328 67.2009C137.415 67.2217 137.505 67.2321 137.599 67.2321C138.266 67.2321 138.808 66.69 138.808 66.0193Z" fill="white"/>
</svg>
