<svg width="86" height="142" viewBox="0 0 86 142" fill="none" xmlns="http://www.w3.org/2000/svg">
<path d="M59.8712 107.571H42.5987V90.2989C42.5987 87.1382 40.0362 84.5801 36.8799 84.5801C33.7236 84.5801 31.1611 87.1382 31.1611 90.2989V107.571H13.8889C10.7326 107.571 8.17004 110.129 8.17004 113.29C8.17004 116.451 10.7326 119.009 13.8889 119.009H31.1611V136.281C31.1611 139.442 33.7236 142 36.8799 142C40.0362 142 42.5987 139.442 42.5987 136.281V119.009H59.8712C63.0275 119.009 65.59 116.451 65.59 113.29C65.59 110.134 63.0275 107.571 59.8712 107.571Z" fill="white"/>
<path d="M36.8796 18.9946C16.509 18.9946 0 35.5081 0 55.8743C0 76.2449 16.5134 92.754 36.8796 92.754C57.2458 92.754 73.7593 76.2405 73.7593 55.8743C73.7593 35.5081 57.2458 18.9946 36.8796 18.9946ZM53.0317 69.6958H20.7235C18.0895 69.6958 15.9553 67.5618 15.9553 64.9279C15.9553 62.294 18.0895 60.16 20.7235 60.16H53.0317C55.6657 60.16 57.7949 62.294 57.7949 64.9279C57.7949 67.5618 55.6657 69.6958 53.0317 69.6958ZM53.0317 51.5886H20.7235C18.0895 51.5886 15.9553 49.4546 15.9553 46.8206C15.9553 44.1867 18.0895 42.0528 20.7235 42.0528H53.0317C55.6657 42.0528 57.7949 44.1867 57.7949 46.8206C57.7949 49.4546 55.6657 51.5886 53.0317 51.5886Z" fill="white"/>
<path d="M85.1658 23.6162L81.9423 4.75451C81.9334 4.69647 81.8977 4.65627 81.8843 4.59824C81.7682 4.00895 81.5719 3.44195 81.2728 2.9107C81.2416 2.85266 81.1968 2.80355 81.1611 2.74551C80.8709 2.26783 80.5049 1.83036 80.0674 1.44196C80.0227 1.40625 79.9916 1.36164 79.9469 1.32146C79.9246 1.3036 79.9066 1.28128 79.8843 1.26342C79.4378 0.906277 78.9468 0.651749 78.4423 0.446391C78.3441 0.406212 78.2548 0.36606 78.1521 0.33481C77.5941 0.142844 77.0227 0.0446284 76.4423 0.0267712C76.3932 0.0267712 76.3486 0 76.2995 0H58.4556C55.2993 0 52.7368 2.55801 52.7368 5.71874C52.7368 8.87948 55.2993 11.4376 58.4556 11.4376H64.3529L49.8485 29.4511C47.8664 31.9109 48.2546 35.5136 50.7145 37.4913C51.7725 38.344 53.0359 38.7547 54.2948 38.7547C55.969 38.7547 57.6252 38.027 58.7502 36.6208L72.7952 19.1831L73.8843 25.5448C74.3619 28.3305 76.7771 30.2993 79.5137 30.2993C79.8351 30.2993 80.1566 30.2725 80.487 30.2189C83.6076 29.6877 85.697 26.7323 85.1658 23.6162Z" fill="white"/>
</svg>
