<svg width="150" height="96" viewBox="0 0 150 96" fill="none" xmlns="http://www.w3.org/2000/svg">
<path d="M109.451 10.8025C109.451 4.83767 104.613 0 98.6517 0C92.6869 0 87.8492 4.83409 87.8492 10.8025C87.8492 4.83767 83.0151 0 77.0503 0C71.0855 0 66.2479 4.83409 66.2479 10.8025C66.2479 11.1746 66.2657 11.5467 66.3051 11.9081C66.8812 21.3402 74.7674 30.2999 87.8492 38.6156C100.935 30.2999 108.817 21.3402 109.393 11.9081C109.429 11.5432 109.451 11.1746 109.451 10.8025Z" fill="white"/>
<path d="M1 94.8183H34.6419L48.9331 72.0898L67.5146 94.8183L87.5201 52.231L109.071 79.7113L124.676 59.4696L137.214 90.4744L149 73.5246" stroke="white" stroke-width="2" stroke-miterlimit="10" stroke-linecap="round" stroke-linejoin="round"/>
</svg>
