<svg width="117" height="69" viewBox="0 0 117 69" fill="none" xmlns="http://www.w3.org/2000/svg">
<path d="M115.07 23.5352C117.084 20.2471 116.001 15.9194 116.001 15.9194C116.001 15.9194 111.653 16.9184 109.635 20.2065C108.016 22.8444 108.392 26.1156 108.605 27.3211L105.331 32.6647C105.696 31.554 105.93 30.2875 105.771 28.9668C105.303 25.1403 101.761 22.4245 101.761 22.4245C101.761 22.4245 98.9779 25.9124 99.4452 29.7389C99.8448 33.0033 102.459 35.4415 103.228 36.095L96.638 46.8465C97.0037 45.7358 97.2407 44.466 97.0782 43.1453C96.6109 39.3188 93.0687 36.5995 93.0687 36.5995C93.0687 36.5995 90.2852 40.0875 90.7526 43.9174C91.1521 47.1818 93.7698 49.6198 94.5351 50.2734L88.8427 59.5621C88.7445 59.7246 88.7953 59.9345 88.9578 60.0361C89.0391 60.0835 89.1339 60.0971 89.2185 60.0768C89.3066 60.0565 89.3812 60.0022 89.4319 59.921L90.9828 57.3881C92.0258 57.8113 95.2631 58.9254 98.26 57.835C101.883 56.5144 103.729 52.4508 103.729 52.4508C103.729 52.4508 99.7025 50.5274 96.0792 51.848C94.9753 52.251 94.0576 52.9147 93.2856 53.6326L99.6755 43.2062C100.715 43.6295 103.956 44.747 106.953 43.6532C110.576 42.3326 112.422 38.269 112.422 38.269C112.422 38.269 108.395 36.3456 104.772 37.6662C103.668 38.0692 102.747 38.7363 101.975 39.4541L109.194 27.68C110.363 27.3245 113.451 26.1731 115.07 23.5352Z" fill="white"/>
<path d="M97.9656 31.7804C99.4082 25.2618 95.2905 18.8076 88.7719 17.365C82.2532 15.9224 75.7989 20.0402 74.3563 26.5588C74.3021 26.8094 74.309 27.0532 74.2684 27.3038C69.8018 26.9584 65.7856 27.4663 62.1149 28.4517C52.6908 20.8698 46.0977 11.2594 41.8005 0C39.254 11.3746 40.8185 21.3913 46.3822 30.0873C35.4444 26.5825 25.614 20.8291 16.7419 13.1253C20.6971 27.3579 28.4856 37.5608 40.0024 43.8357C32.82 51.2246 23.2605 55.9484 13.044 57.6856C8.61815 58.4374 4.06694 59.1417 0 59.6395C9.49857 66.5543 25.3634 66.1751 32.9318 65.5182C35.5935 65.2879 38.2415 65.6029 40.7948 66.3952C51.7427 69.7883 66.6729 68.1595 72.6463 63.5609C79.551 58.2444 86.7198 51.035 84.6745 41.1097C88.4197 41.5736 92.0397 40.3071 94.5997 37.8046L102.29 38.553L97.9656 31.7804Z" fill="white"/>
</svg>
