<svg width="94" height="96" viewBox="0 0 94 96" fill="none" xmlns="http://www.w3.org/2000/svg">
<path d="M70.2498 40.8464V13.9989L46.9998 0.577148L23.7499 13.9989V40.8464L46.9998 54.2722L70.2498 40.8464Z" stroke="white" stroke-miterlimit="10"/>
<path d="M47.0001 81.1873V54.3398L23.7502 40.9141L0.5 54.3398V81.1873L23.7502 94.6091L47.0001 81.1873Z" stroke="white" stroke-miterlimit="10"/>
<path d="M46.9998 81.1873V54.3398L70.2497 40.9141L93.4999 54.3398V81.1873L70.2497 94.6091L46.9998 81.1873Z" stroke="white" stroke-miterlimit="10"/>
<path d="M70.2498 13.9989L46.9998 27.4247L23.7499 13.9989L46.9998 0.577148L70.2498 13.9989Z" fill="white"/>
<path d="M23.7502 94.6091V67.7616L0.5 54.3398V81.1873L23.7502 94.6091Z" fill="white"/>
<path d="M70.2498 94.6091V67.7616L93.5 54.3398V81.1873L70.2498 94.6091Z" fill="white"/>
</svg>
