<svg width="103" height="58" viewBox="0 0 103 58" fill="none" xmlns="http://www.w3.org/2000/svg">
<path d="M74.768 2.51904C74.2722 2.51904 73.7873 2.57374 73.2988 2.59925L75.0704 9.82449C85.9922 9.98854 94.8288 18.9089 94.8288 29.8707C94.8288 40.9346 85.8282 49.9352 74.768 49.9352C63.7041 49.9352 54.7035 40.9346 54.7035 29.8707C54.7035 14.7896 42.4329 2.51904 27.3517 2.51904C12.2705 2.51904 0 14.7896 0 29.8707C0 44.9555 12.2705 57.2261 27.3517 57.2261C31.4309 57.2261 35.3571 56.3512 39.0135 54.6196C40.8325 53.7593 41.6126 51.5866 40.7523 49.7639C39.892 47.9448 37.712 47.172 35.8966 48.025C33.2208 49.2937 30.3446 49.9316 27.348 49.9316C16.2841 49.9316 7.2872 40.9311 7.2872 29.8672C7.2872 18.8069 16.2878 9.80625 27.348 9.80625C38.4083 9.80625 47.4089 18.8069 47.4089 29.8672C47.4089 44.952 59.6795 57.2225 74.7643 57.2225C89.8455 57.2225 102.116 44.952 102.116 29.8672C102.12 14.7896 89.8491 2.51904 74.768 2.51904Z" fill="white"/>
<path d="M68.8076 0L56.9417 12.7955L72.9051 16.7436L68.8076 0Z" fill="white"/>
</svg>
