<svg width="113" height="98" viewBox="0 0 113 98" fill="none" xmlns="http://www.w3.org/2000/svg">
<path d="M111.544 81.7787L65.1934 4.90954C63.3673 1.88127 60.0362 0 56.4999 0C52.9635 0 49.6325 1.88127 47.8062 4.90976L1.45563 81.7787C-0.431598 84.9087 -0.487436 88.8301 1.30975 92.0127C3.10738 95.1952 6.49429 97.1723 10.1491 97.1723H102.851C106.505 97.1723 109.893 95.1952 111.69 92.0125C113.487 88.8297 113.432 84.9082 111.544 81.7787ZM105.284 88.3949C104.789 89.2709 103.857 89.8154 102.851 89.8154H10.1491C9.14295 89.8154 8.21047 89.2711 7.71588 88.3951C7.22106 87.5189 7.23651 86.4393 7.75583 85.5779L54.1068 8.70872C54.6096 7.87513 55.5266 7.35714 56.5001 7.35714C57.4734 7.35714 58.3904 7.87513 58.8932 8.70872L105.244 85.5779C105.763 86.4395 105.779 87.5189 105.284 88.3949Z" fill="white"/>
</svg>
