<svg width="79" height="79" viewBox="0 0 79 79" fill="none" xmlns="http://www.w3.org/2000/svg">
<path d="M39.1944 73.7778H6.91667C5.64861 73.7778 4.61111 72.7403 4.61111 71.4722V6.91667C4.61111 5.64861 5.64861 4.61111 6.91667 4.61111H34.5833V18.4444C34.5833 22.2486 37.6958 25.3611 41.5 25.3611H55.3333V32.2778C55.3333 33.5458 56.3708 34.5833 57.6389 34.5833C58.9069 34.5833 59.9444 33.5458 59.9444 32.2778V23.0556C59.9444 23.0556 59.9214 22.9633 59.9214 22.9172C59.9214 22.7097 59.8753 22.5253 59.8061 22.3408C59.8061 22.2947 59.8061 22.2256 59.7831 22.1794C59.7831 22.1564 59.7369 22.1333 59.7369 22.1103C59.6217 21.8567 59.4833 21.6261 59.2758 21.4417L38.5258 0.668611C38.3183 0.461111 38.0878 0.322778 37.8572 0.2075C37.8342 0.2075 37.8111 0.161389 37.7881 0.161389C37.7419 0.161389 37.6958 0.161389 37.6267 0.138333C37.4422 0.0691665 37.2578 0.0461111 37.0503 0.0230555C37.0042 0.0230555 36.9581 0 36.9119 0H6.91667C3.1125 0 0 3.1125 0 6.91667V71.4722C0 75.2764 3.1125 78.3889 6.91667 78.3889H39.1944C40.4625 78.3889 41.5 77.3514 41.5 76.0833C41.5 74.8153 40.4625 73.7778 39.1944 73.7778ZM52.0825 20.75H41.5C40.2319 20.75 39.1944 19.7125 39.1944 18.4444V7.86194L52.0825 20.75ZM57.6389 36.8889C46.2033 36.8889 36.8889 46.2033 36.8889 57.6389C36.8889 69.0744 46.2033 78.3889 57.6389 78.3889C69.0744 78.3889 78.3889 69.0744 78.3889 57.6389C78.3889 46.2033 69.0744 36.8889 57.6389 36.8889ZM73.5933 55.3333H59.9444V41.6844C66.9994 42.6989 72.5789 48.2783 73.5933 55.3333ZM57.6389 73.7778C48.7394 73.7778 41.5 66.5383 41.5 57.6389C41.5 49.5233 47.5175 42.8142 55.3333 41.6844V57.6389C55.3333 58.9069 56.3708 59.9444 57.6389 59.9444H73.5933C72.4636 67.7603 65.7544 73.7778 57.6389 73.7778ZM9.22222 34.5833C9.22222 33.3153 10.2597 32.2778 11.5278 32.2778H34.5833C35.8514 32.2778 36.8889 33.3153 36.8889 34.5833C36.8889 35.8514 35.8514 36.8889 34.5833 36.8889H11.5278C10.2597 36.8889 9.22222 35.8514 9.22222 34.5833ZM9.22222 23.0556C9.22222 21.7875 10.2597 20.75 11.5278 20.75H27.6667C28.9347 20.75 29.9722 21.7875 29.9722 23.0556C29.9722 24.3236 28.9347 25.3611 27.6667 25.3611H11.5278C10.2597 25.3611 9.22222 24.3236 9.22222 23.0556Z" fill="white"/>
</svg>
