<svg width="118" height="118" viewBox="0 0 118 118" fill="none" xmlns="http://www.w3.org/2000/svg">
<g clip-path="url(#clip0_491_1701)">
<path d="M55.0663 62.9333H62.9329C63.4545 62.9333 63.9548 62.7261 64.3236 62.3573C64.6924 61.9885 64.8996 61.4883 64.8996 60.9667C64.8996 60.4451 64.6924 59.9448 64.3236 59.576C63.9548 59.2072 63.4545 59 62.9329 59H55.0663C54.5447 59 54.0445 59.2072 53.6756 59.576C53.3068 59.9448 53.0996 60.4451 53.0996 60.9667C53.0996 61.4883 53.3068 61.9885 53.6756 62.3573C54.0445 62.7261 54.5447 62.9333 55.0663 62.9333Z" fill="white"/>
<path d="M60.9664 64.9004H57.0331C56.5115 64.9004 56.0112 65.1076 55.6424 65.4764C55.2736 65.8452 55.0664 66.3455 55.0664 66.8671C55.0664 67.3886 55.2736 67.8889 55.6424 68.2577C56.0112 68.6265 56.5115 68.8337 57.0331 68.8337H60.9664C61.488 68.8337 61.9882 68.6265 62.3571 68.2577C62.7259 67.8889 62.9331 67.3886 62.9331 66.8671C62.9331 66.3455 62.7259 65.8452 62.3571 65.4764C61.9882 65.1076 61.488 64.9004 60.9664 64.9004Z" fill="white"/>
<path d="M57.0331 55.0661H60.9664C61.488 55.0661 61.9882 54.8589 62.3571 54.4901C62.7259 54.1213 62.9331 53.6211 62.9331 53.0995C62.9331 52.5779 62.7259 52.0777 62.3571 51.7088C61.9882 51.34 61.488 51.1328 60.9664 51.1328H57.0331C56.5115 51.1328 56.0112 51.34 55.6424 51.7088C55.2736 52.0777 55.0664 52.5779 55.0664 53.0995C55.0664 53.6211 55.2736 54.1213 55.6424 54.4901C56.0112 54.8589 56.5115 55.0661 57.0331 55.0661Z" fill="white"/>
<path d="M36.4891 82.7968C33.838 83.6896 18.3446 89.0173 14.3424 93.0234C8.92624 98.4259 7.86621 105.553 7.86621 116.033C7.86621 116.555 8.07341 117.055 8.44223 117.424C8.81106 117.793 9.31129 118 9.83288 118H108.166C108.688 118 109.188 117.793 109.557 117.424C109.926 117.055 110.133 116.555 110.133 116.033C110.133 105.553 109.073 98.4259 103.657 93.0097C99.6545 89.0075 84.1611 83.6798 81.51 82.783L76.32 79.3236C74.8103 76.1499 74.1064 72.6529 74.2707 69.1422L79.2326 64.8037C80.2904 63.8792 81.1381 62.7392 81.7188 61.46C82.2995 60.1808 82.5998 58.7922 82.5996 57.3874V54.8701C84.2271 54.5493 85.7459 53.8187 87.0124 52.7473C88.2788 51.676 89.2511 50.2993 89.8372 48.7474C90.4234 47.1956 90.604 45.5199 90.362 43.8788C90.12 42.2377 89.4634 40.6854 88.4543 39.3688C88.3174 37.0872 87.6601 34.8672 86.5329 32.8788V21.1614C86.5395 18.7818 86.0042 16.432 84.9677 14.2901C83.9311 12.1481 82.4205 10.2703 80.5503 8.79895C76.1269 5.26831 70.8223 3.01451 65.2103 2.28142C63.4745 0.808528 61.2721 0 58.9956 0C56.7192 0 54.5167 0.808528 52.7809 2.28142C47.1687 3.01624 41.8642 5.27135 37.4409 8.80289C35.5726 10.2745 34.0637 12.152 33.0286 14.2932C31.9934 16.4344 31.4591 18.7831 31.4662 21.1614V32.8749C30.339 34.8633 29.6817 37.0833 29.5448 39.3649C28.5347 40.6815 27.8774 42.2341 27.6349 43.8757C27.3924 45.5174 27.5728 47.1937 28.159 48.7462C28.7452 50.2986 29.7178 51.6758 30.9848 52.7474C32.2518 53.819 33.7714 54.5496 35.3995 54.8701V57.3874C35.3987 58.7929 35.6987 60.1823 36.2795 61.4621C36.8602 62.742 37.7082 63.8827 38.7665 64.8077L43.7284 69.1461C43.8927 72.6568 43.1888 76.1538 41.6791 79.3276L36.4891 82.7968ZM30.3924 89.1963L31.362 91.6192C31.4249 91.7707 31.4563 91.9334 31.4543 92.0974C31.4522 92.2613 31.4168 92.4232 31.3502 92.5731C31.2863 92.7207 31.1933 92.8539 31.0767 92.9648C30.9601 93.0756 30.8224 93.1618 30.6717 93.2181C26.3175 94.8485 22.8227 96.2822 19.9887 97.6018C19.8305 97.678 19.6583 97.7212 19.4829 97.7286C19.3074 97.7361 19.1322 97.7076 18.968 97.6451C18.8154 97.5845 18.677 97.4926 18.5619 97.3755C18.4467 97.2583 18.3573 97.1183 18.2994 96.9646L17.6504 95.3421C21.6488 92.8055 25.9272 90.7399 30.4003 89.1865L30.3924 89.1963ZM41.2995 114.067H31.4662V104.233H41.2995V114.067ZM57.0329 114.067H45.2329V104.233C45.2308 103.546 45.048 102.871 44.7028 102.277C44.3576 101.682 43.8622 101.189 43.2662 100.847V98.3334C43.2662 97.8118 43.059 97.3116 42.6902 96.9428C42.3214 96.574 41.8211 96.3668 41.2995 96.3668C40.778 96.3668 40.2777 96.574 39.9089 96.9428C39.5401 97.3116 39.3329 97.8118 39.3329 98.3334V100.3H31.4662C30.423 100.3 29.4226 100.714 28.6849 101.452C27.9473 102.19 27.5329 103.19 27.5329 104.233V114.067H11.8133C11.9097 107.394 12.5783 102.554 14.8361 98.7641C15.3844 99.9107 16.3431 100.81 17.5225 101.283C18.1295 101.522 18.776 101.645 19.4282 101.645C20.1981 101.645 20.9585 101.476 21.6565 101.152C24.398 99.8733 27.8023 98.477 32.0621 96.882C32.7037 96.6401 33.2905 96.2724 33.7881 95.8007C34.2858 95.329 34.6842 94.7626 34.9601 94.1349C35.2359 93.5071 35.3837 92.8306 35.3946 92.145C35.4056 91.4594 35.2796 90.7785 35.0239 90.1423L34.0838 87.7941C35.1399 87.4007 36.1154 87.0644 36.9375 86.7812L47.6617 95.9734C48.6371 96.8004 49.887 97.2318 51.1648 97.1826C52.4427 97.1335 53.6557 96.6073 54.5647 95.7079L57.0329 93.2476V114.067ZM45.7855 79.6934C46.7228 77.4 47.3294 74.985 47.587 72.5209L49.5792 74.2634C51.3683 75.8347 53.6684 76.7009 56.0495 76.7001H61.9496C64.3289 76.701 66.6273 75.8363 68.416 74.2673L70.4121 72.5209C70.6697 74.985 71.2763 77.4 72.2136 79.6934L58.9995 86.3014L45.7855 79.6934ZM86.5329 114.067H70.7996V112.1C70.7996 111.578 71.0068 111.078 71.3756 110.709C71.7444 110.341 72.2446 110.133 72.7662 110.133H84.5662C85.0878 110.133 85.588 110.341 85.9569 110.709C86.3257 111.078 86.5329 111.578 86.5329 112.1V114.067ZM86.6253 91.6094L87.5949 89.1865C92.0648 90.7372 96.341 92.7981 100.339 95.3284L99.686 96.9587C99.6289 97.1116 99.5405 97.2508 99.4263 97.3673C99.3122 97.4838 99.1748 97.5751 99.0232 97.6353C98.8584 97.6976 98.6827 97.7261 98.5067 97.719C98.3306 97.712 98.1578 97.6694 97.9986 97.594C95.1646 96.2724 91.6698 94.8406 87.3196 93.2103C87.1675 93.1526 87.0285 93.065 86.9108 92.9527C86.7932 92.8404 86.6992 92.7056 86.6345 92.5564C86.5698 92.4072 86.5356 92.2465 86.534 92.0838C86.5325 91.9212 86.5635 91.7598 86.6253 91.6094ZM83.9113 87.8019L82.9713 90.1501C82.7155 90.7871 82.5897 91.4688 82.6012 92.155C82.6127 92.8413 82.7612 93.5184 83.038 94.1465C83.3149 94.7746 83.7144 95.341 84.2133 95.8124C84.7121 96.2839 85.3002 96.6509 85.9429 96.8919C90.1988 98.4849 93.6031 99.8812 96.3466 101.161C97.0449 101.485 97.8052 101.653 98.5748 101.653C99.228 101.653 99.8753 101.53 100.482 101.289C101.663 100.813 102.621 99.9115 103.167 98.7622C105.413 102.552 106.089 107.392 106.186 114.067H90.4662V112.1C90.4662 110.535 89.8446 109.035 88.7382 107.928C87.6317 106.822 86.131 106.2 84.5662 106.2H72.7662C71.2014 106.2 69.7008 106.822 68.5943 107.928C67.4878 109.035 66.8662 110.535 66.8662 112.1V114.067H60.9662V93.2476L63.4344 95.7158C64.3434 96.6152 65.5564 97.1414 66.8343 97.1905C68.1121 97.2397 69.362 96.8082 70.3374 95.9813L81.0616 86.7891C81.8837 87.0723 82.8572 87.4165 83.9113 87.8019ZM74.5913 82.903L77.382 84.7634L67.7788 92.9959C67.5567 93.185 67.2716 93.2837 66.9802 93.2724C66.6887 93.2611 66.4122 93.1406 66.2054 92.9349L62.3095 89.039L74.5913 82.903ZM58.9995 3.93342C61.4009 3.93342 62.9329 5.09768 62.9329 5.90008C62.9329 6.70249 61.4009 7.86675 58.9995 7.86675C56.5983 7.86675 55.0662 6.70249 55.0662 5.90008C55.0662 5.09768 56.5983 3.93342 58.9995 3.93342ZM35.3995 21.1614C35.394 19.3775 35.7945 17.6157 36.5707 16.0094C37.3469 14.4032 38.4784 12.9947 39.8796 11.8906C43.1919 9.25073 47.0728 7.41736 51.2155 6.53532C51.6305 9.52858 54.8794 11.8001 58.9995 11.8001C63.1197 11.8001 66.3687 9.52858 66.7836 6.53532C70.924 7.41692 74.8027 9.2489 78.1136 11.8866C79.5163 12.9907 80.6492 14.3996 81.4264 16.0066C82.2037 17.6135 82.6049 19.3764 82.5996 21.1614V30.2612C75.139 27.0914 67.1052 25.4934 58.9995 25.5668C50.8939 25.4934 42.8601 27.0914 35.3995 30.2612V21.1614ZM34.8331 34.9065C42.3526 31.2325 50.6314 29.3804 58.9995 29.5001C67.3674 29.3808 75.646 31.2322 83.166 34.9045C84.0655 36.5033 84.5472 38.3033 84.5662 40.1378C84.5574 40.3348 84.4999 40.5265 84.399 40.6959C84.2981 40.8653 84.1569 41.0072 83.9879 41.1088C83.819 41.2104 83.6275 41.2687 83.4305 41.2784C83.2336 41.2881 83.0373 41.2489 82.8592 41.1644L82.3065 40.8596C78.6072 38.83 68.7798 33.4334 58.9995 33.4334C49.2193 33.4334 39.3919 38.83 35.6926 40.8596L35.1399 41.1644C34.9618 41.2484 34.7656 41.2871 34.5688 41.2772C34.3721 41.2673 34.1808 41.209 34.012 41.1074C33.8432 41.0059 33.702 40.8643 33.601 40.6952C33.5 40.526 33.4422 40.3346 33.4329 40.1378C33.4516 38.3039 33.9332 36.5045 34.8331 34.9065ZM41.3546 61.8498C40.7186 61.2935 40.209 60.6074 39.8603 59.8376C39.5116 59.0679 39.3317 58.2325 39.3329 57.3874V53.1001C39.3329 52.5785 39.1257 52.0783 38.7569 51.7094C38.388 51.3406 37.8878 51.1334 37.3662 51.1334C36.5038 51.1369 35.6511 50.9504 34.8688 50.5873C34.0865 50.2242 33.3937 49.6934 32.8396 49.0325C32.2855 48.3716 31.8837 47.5968 31.6626 46.7632C31.4416 45.9295 31.4068 45.0574 31.5606 44.2088C32.3334 44.7955 33.2592 45.1464 34.2267 45.2194C35.1942 45.2923 36.1622 45.0841 37.0142 44.6198L37.5845 44.3091C41.0439 42.4093 50.2302 37.3668 58.9995 37.3668C67.7689 37.3668 76.9552 42.4093 80.4146 44.3091L80.9849 44.6198C81.8369 45.0841 82.8049 45.2923 83.7724 45.2194C84.7399 45.1464 85.6657 44.7955 86.4385 44.2088C86.5923 45.0574 86.5575 45.9295 86.3365 46.7632C86.1154 47.5968 85.7136 48.3716 85.1595 49.0325C84.6054 49.6934 83.9126 50.2242 83.1303 50.5873C82.348 50.9504 81.4953 51.1369 80.6329 51.1334C80.1113 51.1334 79.6111 51.3406 79.2422 51.7094C78.8734 52.0783 78.6662 52.5785 78.6662 53.1001V57.3874C78.6668 58.2318 78.4867 59.0665 78.138 59.8355C77.7893 60.6045 77.28 61.29 76.6445 61.8459L65.8278 71.3095C64.7549 72.2499 63.3764 72.7679 61.9496 72.7668H56.0495C54.6223 72.7667 53.2438 72.2473 52.1713 71.3055L41.3546 61.8498ZM55.6798 89.0429L51.7838 92.9389C51.578 93.1426 51.3034 93.2619 51.014 93.2732C50.7245 93.2845 50.4414 93.187 50.2203 92.9998L40.6171 84.7634L43.4078 82.903L55.6798 89.0429Z" fill="white"/>
<path d="M53.0991 43.2674C53.0991 42.7459 52.8919 42.2456 52.5231 41.8768C52.1542 41.508 51.654 41.3008 51.1324 41.3008H47.1991C46.6775 41.3008 46.1773 41.508 45.8084 41.8768C45.4396 42.2456 45.2324 42.7459 45.2324 43.2674C45.2324 43.789 45.4396 44.2893 45.8084 44.6581C46.1773 45.0269 46.6775 45.2341 47.1991 45.2341C47.1991 45.7557 47.4063 46.2559 47.7751 46.6248C48.1439 46.9936 48.6442 47.2008 49.1658 47.2008C49.6873 47.2008 50.1876 46.9936 50.5564 46.6248C50.9252 46.2559 51.1324 45.7557 51.1324 45.2341C51.654 45.2341 52.1542 45.0269 52.5231 44.6581C52.8919 44.2893 53.0991 43.789 53.0991 43.2674Z" fill="white"/>
<path d="M66.8661 45.2341C66.8661 45.7557 67.0733 46.2559 67.4421 46.6248C67.8109 46.9936 68.3112 47.2008 68.8327 47.2008C69.3543 47.2008 69.8546 46.9936 70.2234 46.6248C70.5922 46.2559 70.7994 45.7557 70.7994 45.2341C71.321 45.2341 71.8212 45.0269 72.1901 44.6581C72.5589 44.2893 72.7661 43.789 72.7661 43.2674C72.7661 42.7459 72.5589 42.2456 72.1901 41.8768C71.8212 41.508 71.321 41.3008 70.7994 41.3008H66.8661C66.3445 41.3008 65.8443 41.508 65.4754 41.8768C65.1066 42.2456 64.8994 42.7459 64.8994 43.2674C64.8994 43.789 65.1066 44.2893 65.4754 44.6581C65.8443 45.0269 66.3445 45.2341 66.8661 45.2341Z" fill="white"/>
</g>
<defs>
<clipPath id="clip0_491_1701">
<rect width="118" height="118" fill="white"/>
</clipPath>
</defs>
</svg>
